<?xml version="1.0" encoding="UTF-8" standalone="no"?>
<!-- Created with Inkscape (http://www.inkscape.org/) -->

<svg
   width="207.03091mm"
   height="131.5233mm"
   viewBox="0 0 207.03092 131.5233"
   version="1.1"
   id="svg1"
   xml:space="preserve"
   inkscape:version="1.4 (86a8ad7, 2024-10-11)"
   sodipodi:docname="cou-simple-fr.svg"
   xmlns:inkscape="http://www.inkscape.org/namespaces/inkscape"
   xmlns:sodipodi="http://sodipodi.sourceforge.net/DTD/sodipodi-0.dtd"
   xmlns="http://www.w3.org/2000/svg"
   xmlns:svg="http://www.w3.org/2000/svg"
   xmlns:rdf="http://www.w3.org/1999/02/22-rdf-syntax-ns#"
   xmlns:cc="http://creativecommons.org/ns#"
   xmlns:dc="http://purl.org/dc/elements/1.1/"><title
     id="title16">Courrier Simple France</title><sodipodi:namedview
     id="namedview1"
     pagecolor="#ffffff"
     bordercolor="#111111"
     borderopacity="1"
     inkscape:showpageshadow="0"
     inkscape:pageopacity="0"
     inkscape:pagecheckerboard="1"
     inkscape:deskcolor="#d1d1d1"
     inkscape:document-units="mm"
     inkscape:zoom="0.61112514"
     inkscape:cx="337.08317"
     inkscape:cy="350.17378"
     inkscape:window-width="1500"
     inkscape:window-height="930"
     inkscape:window-x="-6"
     inkscape:window-y="-6"
     inkscape:window-maximized="1"
     inkscape:current-layer="layer2" /><defs
     id="defs1"><filter
       inkscape:collect="always"
       style="color-interpolation-filters:sRGB"
       id="filter15"
       x="-0.17338275"
       y="-0.34151031"
       width="1.346759"
       height="1.6821002"><feGaussianBlur
         inkscape:collect="always"
         stdDeviation="5.5841653"
         id="feGaussianBlur15" /></filter></defs><path
     style="opacity:0.250784;fill:#15b200;fill-opacity:1;stroke:#50dd3d;stroke-width:26.504;stroke-linecap:round;stroke-linejoin:round;stroke-dasharray:none;stroke-opacity:1;filter:url(#filter15)"
     id="path15"
     d="m 36.036487,88.750027 c 3.770619,-6.65046 9.26479,-12.17752 14.467297,-17.69979 11.205197,-11.3585 24.062946,-20.98934 37.892148,-28.92244 2.361435,-1.35464 4.790665,-2.58751 7.186005,-3.88126 5.554293,-2.45734 11.116513,-5.75822 17.325533,-6.27534 1.51289,-0.126 3.06796,-0.0692 4.54591,0.27781 1.22374,0.28731 4.65486,1.819 3.41851,1.59201 -2.14384,-0.39361 -4.12815,-1.40084 -6.19223,-2.10126 0.17868,1.3879 0.63351,2.76775 0.53604,4.16371 -0.2831,4.05457 -2.17779,8.5229 -3.86691,12.08549 -2.60088,5.48562 -4.66268,8.53159 -7.81649,13.71936 -1.37581,2.26311 -2.7457,4.52981 -4.118553,6.79471 -3.59201,5.87415 -6.71697,12.03653 -9.20264,18.46065 -0.839262,2.16905 -2.121822,5.92868 -2.572148,8.35536 -0.161975,0.87286 -0.146119,1.7695 -0.219178,2.65425 2.084329,4.770413 1.338276,3.954163 11.214436,6.878513 0.93747,0.27759 1.720543,-0.93319 2.541743,-1.4638 3.76283,-2.43135 7.06968,-5.306143 10.4433,-8.235203 1.55623,-1.29833 3.11728,-2.59092 4.66871,-3.89499 4.94326,-4.15514 6.02722,-5.18918 11.20738,-9.28681 3.99489,-3.16007 10.21887,-7.87223 14.279,-10.79237 2.58852,-1.86172 5.2297,-3.64911 7.84456,-5.47366 6.49326,-4.35088 13.12281,-8.52581 20.04031,-12.17563 2.56211,-1.35182 5.36973,-2.70271 8.0997,-3.73544 0.85842,-0.32473 1.74645,-0.56501 2.61968,-0.84752 0,0 -8.25178,-5.52471 -8.25178,-5.52471 v 0 c -0.76963,0.38024 -1.55392,0.73215 -2.3089,1.14072 -2.37733,1.28655 -5.00941,2.94219 -7.2373,4.39355 -2.99164,1.9489 -8.87774,5.96736 -11.61376,7.83988 -2.461,1.68429 -4.91506,3.37872 -7.37259,5.06808 -7.61297,5.27031 -15.34474,10.40271 -22.80724,15.88645 -5.61508,4.12618 -11.03867,8.51604 -16.58261,12.73595 -1.19001,0.84655 -6.421983,4.61197 -8.059243,5.63647 -1.03308,0.64644 -2.07085,1.30154 -3.18563,1.79386 -0.82769,0.36553 -3.17477,0.0606 -2.60488,0.76339 1.47431,1.818063 10.651743,7.528413 5.91343,3.787033 -0.0965,-0.89724 -0.32269,-1.78992 -0.28963,-2.691743 0.0878,-2.39459 1.07499,-6.52155 1.71552,-8.64673 1.98555,-6.58775 4.987513,-12.79207 8.469613,-18.71033 1.36669,-2.26637 2.72048,-4.54058 4.10009,-6.79912 2.16802,-3.54921 6.23345,-9.92796 8.22513,-13.60235 1.63049,-3.00804 4.31864,-8.41289 4.99892,-11.95914 0.28163,-1.46818 0.0204,-2.98984 0.0306,-4.48477 -2.45737,-1.84784 -8.53456,-8.09391 -13.49599,-8.74504 -7.42939,-0.97502 -14.710483,3.96634 -20.931216,7.19697 -5.511969,3.29004 -9.061929,5.31052 -14.457587,8.96062 -2.648302,1.79154 -5.231397,3.67812 -7.816691,5.55944 -7.954817,5.78873 -15.685138,11.8676 -23.095318,18.34286 -1.876052,1.72224 -3.748669,3.44822 -5.628153,5.16671 -3.955013,3.61622 -8.050702,7.10917 -11.440073,11.28381 z" /><g
     inkscape:groupmode="layer"
     id="layer2"
     inkscape:label="Calque 2"
     transform="translate(-10.424923,-101.49131)"><g
       transform="matrix(0.0063217,5.1890298e-4,5.0276051e-4,-0.00630986,116.54915,187.9388)"
       fill="#000000"
       stroke="none"
       id="g13"
       style="fill:#15b200;fill-opacity:1;stroke:#31b21f;stroke-width:157.818;stroke-linecap:round;stroke-linejoin:round;stroke-dasharray:315.637, 157.818, 78.9089, 157.818;stroke-dashoffset:0;stroke-opacity:1"
       inkscape:label="France"><path
         d="m 5755,11026 c -109,-57 -161,-78 -234,-95 -72,-16 -113,-33 -172,-69 l -77,-47 -31,-102 -32,-101 12,-174 11,-173 -31,-124 c -31,-120 -35,-128 -110,-233 -73,-102 -85,-113 -183,-177 -95,-62 -115,-70 -233,-101 -146,-37 -273,-98 -410,-197 -78,-57 -80,-59 -93,-118 -11,-50 -21,-68 -63,-111 l -50,-51 45,-41 c 25,-23 55,-42 66,-42 29,0 25,-17 -6,-24 -15,-4 -55,-34 -90,-68 -63,-60 -64,-61 -133,-66 -66,-4 -72,-3 -108,25 -31,25 -67,37 -198,66 -138,31 -314,57 -390,57 -14,0 -25,-7 -28,-20 -3,-11 -12,-20 -21,-20 -12,0 -16,10 -16,39 0,34 -6,43 -45,75 -42,35 -45,40 -45,86 0,40 4,51 21,61 19,10 21,17 16,66 -3,30 -8,58 -11,61 -4,3 -43,11 -88,19 -78,12 -83,12 -103,-7 -17,-16 -35,-20 -86,-20 -63,0 -65,1 -76,30 l -11,30 h -90 c -111,0 -123,-9 -93,-69 14,-26 21,-59 21,-93 0,-29 10,-98 22,-153 20,-94 26,-107 109,-234 l 88,-134 12,-241 c 12,-238 12,-242 40,-282 l 27,-40 -35,-38 c -21,-22 -41,-35 -50,-32 -8,3 -40,6 -71,6 -56,0 -57,1 -80,41 -16,28 -28,38 -40,35 -9,-3 -60,-12 -112,-21 -52,-9 -98,-22 -102,-28 -28,-49 -25,-49 -142,-12 -61,19 -111,33 -111,32 -1,-1 -20,-29 -43,-63 -36,-54 -45,-61 -89,-71 -45,-11 -50,-10 -74,13 -14,13 -47,61 -74,107 -26,45 -77,121 -113,168 l -65,86 -106,14 c -125,15 -262,13 -273,-4 -4,-7 -13,-38 -19,-69 l -12,-58 h -113 c -85,0 -114,-3 -114,-12 -1,-35 -15,-38 -80,-16 -60,20 -70,20 -164,9 -131,-15 -289,-51 -399,-91 l -88,-32 -36,-72 -35,-72 41,-82 42,-83 72,6 c 40,3 92,15 117,26 l 45,20 48,-20 c 36,-15 48,-26 45,-38 -2,-12 -12,-17 -28,-16 -57,5 -200,6 -204,2 -2,-2 -7,-29 -11,-60 l -7,-55 46,-11 c 32,-7 62,-7 93,-1 57,13 128,-4 119,-28 -3,-9 -6,-24 -6,-35 0,-25 -42,-26 -78,-1 -22,14 -45,16 -128,14 -93,-3 -104,-5 -133,-30 -34,-28 -59,-101 -40,-113 6,-3 55,-18 110,-34 l 99,-27 1,-62 c 0,-53 6,-70 43,-131 l 42,-70 64,-7 65,-8 45,50 c 39,44 50,50 83,50 28,0 44,-7 65,-29 21,-22 51,-35 129,-56 91,-25 107,-33 145,-72 l 42,-43 h -39 c -61,0 -67,-8 -58,-71 l 8,-54 51,-9 c 50,-8 53,-7 114,34 34,23 76,46 93,51 28,8 35,5 65,-24 33,-31 34,-33 30,-104 l -3,-73 47,-20 c 26,-11 49,-20 53,-20 3,0 19,16 36,35 42,47 76,47 118,0 l 31,-35 100,17 101,16 25,-25 25,-25 -13,-94 -14,-94 30,-62 30,-63 81,6 80,7 23,-71 c 22,-69 24,-71 60,-78 66,-11 73,-15 94,-58 l 20,-42 -41,-66 c -30,-46 -45,-84 -52,-129 l -11,-64 96,-90 c 86,-80 96,-94 96,-125 0,-19 3,-59 7,-88 6,-52 9,-56 79,-115 55,-46 97,-70 176,-102 166,-67 245,-111 263,-145 l 16,-30 h -61 c -47,0 -73,7 -120,30 -33,17 -63,30 -67,30 -7,0 -93,-132 -93,-142 0,-2 27,-27 59,-55 l 59,-52 45,39 c 43,38 48,40 114,40 h 69 l 51,-53 c 50,-51 51,-53 55,-120 3,-66 2,-68 -28,-87 l -32,-21 -26,45 c -32,55 -138,150 -147,133 -4,-7 -14,-39 -23,-71 l -15,-59 71,-73 70,-73 -6,-98 -7,-98 126,-65 c 112,-58 135,-75 221,-161 l 96,-96 8,-99 c 14,-150 13,-157 -15,-90 -30,72 -168,258 -230,310 l -47,38 -38,-17 c -22,-10 -46,-25 -53,-34 -13,-15 -30,-224 -64,-761 l -6,-95 43,-53 c 23,-30 40,-56 37,-59 -3,-2 -22,0 -43,6 -24,7 -40,7 -44,1 -3,-5 -14,-76 -24,-157 -52,-442 -76,-584 -128,-753 -28,-91 -62,-226 -77,-301 l -27,-135 -77,-90 c -76,-89 -77,-91 -154,-114 -43,-13 -79,-25 -81,-26 -3,-2 45,-73 75,-113 2,-3 67,-15 144,-27 78,-13 143,-24 144,-26 2,-2 6,-39 10,-83 7,-80 7,-81 -19,-93 -23,-10 -26,-17 -26,-62 0,-46 2,-50 28,-55 74,-16 69,-18 88,30 9,25 20,45 24,45 3,0 14,-15 22,-34 12,-24 42,-49 106,-90 l 89,-56 h 134 134 l 83,-110 c 45,-61 88,-110 95,-110 7,0 51,11 98,25 105,31 109,31 224,-2 l 94,-26 3,-46 3,-46 195,-21 c 191,-21 323,-21 496,2 l 42,5 -23,90 -23,91 22,-6 c 23,-6 236,-40 317,-51 42,-5 49,-10 76,-53 l 29,-47 90,6 c 49,3 90,6 90,5 1,-1 18,-35 39,-76 21,-41 39,-77 40,-78 2,-2 20,14 40,36 l 36,40 93,-31 94,-31 7,-51 6,-51 88,-44 c 88,-43 88,-43 105,-97 l 17,-54 87,3 86,3 9,31 c 8,26 16,33 46,38 81,13 113,7 175,-33 56,-36 68,-39 149,-44 l 89,-5 106,93 c 95,82 112,93 157,99 28,4 69,17 92,28 37,19 42,24 37,47 -4,14 -16,69 -29,121 -17,69 -24,139 -28,253 l -6,157 54,118 c 51,111 58,121 145,203 81,76 98,87 138,93 48,6 46,5 365,249 l 118,90 47,-46 47,-46 115,-7 c 92,-5 126,-3 169,10 30,9 60,16 66,16 5,0 25,-26 43,-58 l 32,-59 157,-6 c 268,-12 318,-10 355,13 23,14 51,20 91,20 h 57 v -63 -62 l 178,-48 c 97,-26 233,-57 301,-69 123,-21 125,-21 245,-3 l 121,19 66,63 66,63 122,19 c 67,10 123,20 126,22 2,2 7,55 11,117 l 7,112 73,40 c 71,39 76,44 112,116 33,65 45,79 87,102 44,24 52,35 81,101 l 32,74 139,71 c 199,101 182,84 144,150 l -31,56 42,57 c 27,37 49,83 63,133 l 22,75 -34,95 c -19,52 -36,96 -38,98 -2,2 -19,-27 -39,-65 l -36,-69 -138,14 c -117,12 -142,17 -169,38 -26,20 -43,24 -95,24 -64,0 -65,1 -156,68 -87,64 -92,69 -89,101 2,31 6,36 47,49 l 45,15 -39,31 c -22,17 -50,40 -64,52 l -25,20 51,40 51,39 1,151 v 151 l -101,28 c -56,16 -107,35 -114,42 -7,6 -16,29 -20,50 -8,47 -18,59 -67,84 -37,19 -38,21 -38,74 v 55 h 81 80 l 109,78 110,77 v 112 111 l -84,62 -84,62 -6,78 -7,77 -51,6 c -36,5 -63,15 -87,35 -31,25 -36,36 -39,76 l -3,47 46,20 c 35,16 55,35 90,86 l 44,66 -37,51 c -141,197 -141,196 -173,196 -21,0 -29,4 -26,13 3,6 17,40 32,74 l 27,62 -90,100 -91,99 -80,-55 c -74,-52 -85,-56 -149,-61 -63,-4 -74,-8 -116,-45 l -47,-40 35,-36 c 47,-48 47,-77 -1,-123 -28,-27 -55,-41 -102,-53 -60,-15 -64,-15 -77,2 -39,49 -38,52 17,75 49,21 54,27 85,92 l 33,71 -50,30 c -43,26 -49,34 -49,64 0,20 12,54 30,83 30,48 30,49 14,81 l -17,32 107,100 106,100 6,120 c 4,66 11,128 15,137 6,12 28,19 69,24 l 59,7 130,207 c 91,146 134,226 145,265 l 15,57 -32,-7 c -97,-20 -97,-20 -97,12 0,24 11,40 53,75 106,90 127,97 127,44 0,-19 4,-37 8,-40 4,-2 52,-2 106,1 l 98,6 49,61 50,61 -7,70 c -3,39 -19,104 -34,146 l -29,76 30,94 29,94 -17,117 -17,118 49,322 49,323 93,96 93,96 20,108 c 11,60 20,116 20,125 0,11 -33,26 -123,53 l -123,37 -110,-20 c -60,-11 -117,-22 -126,-24 -11,-2 -32,15 -59,49 -39,49 -45,53 -97,59 -41,5 -58,3 -63,-6 -25,-43 -37,-50 -97,-57 l -62,-7 -40,47 c -38,45 -41,47 -82,42 -104,-13 -113,-17 -110,-47 4,-27 3,-27 -45,-24 l -48,3 -113,149 c -107,142 -116,151 -175,178 -34,15 -67,28 -73,28 -6,0 -35,-13 -65,-29 -42,-22 -76,-31 -154,-39 l -100,-11 -55,59 -55,59 -50,-44 c -46,-42 -53,-45 -106,-45 h -57 l -73,84 -73,85 -157,57 -156,57 -24,71 c -19,57 -25,99 -29,211 -6,178 -15,183 -85,50 -35,-68 -63,-107 -95,-134 l -46,-39 -110,-3 c -98,-3 -113,-1 -138,17 l -27,20 17,43 17,43 -36,32 -36,31 15,79 15,79 -43,43 -43,43 -70,-9 c -38,-5 -101,-10 -139,-11 l -70,-2 -12,36 c -17,50 -103,160 -119,153 -7,-2 -44,-8 -82,-11 l -70,-7 -35,48 c -27,37 -37,63 -43,108 -6,52 -12,64 -61,117 -30,32 -56,60 -59,61 -2,2 -36,-25 -74,-60 l -71,-63 -47,27 c -57,33 -193,134 -193,144 0,4 5,31 11,61 11,54 10,57 -34,152 -25,53 -49,97 -54,97 -4,0 -71,-34 -148,-74 z m 178,-49 37,-82 -15,-55 c -8,-30 -15,-58 -15,-61 0,-12 157,-128 224,-164 l 68,-38 64,64 64,63 44,-49 c 37,-42 45,-59 50,-105 5,-40 17,-70 49,-117 40,-61 43,-63 77,-59 19,3 58,8 86,12 l 52,6 40,-53 c 22,-30 43,-71 47,-92 4,-20 11,-39 15,-42 5,-3 73,0 151,5 l 142,11 31,-30 30,-30 -14,-82 -13,-83 33,-27 33,-28 -17,-42 -17,-42 33,-28 c 45,-39 64,-43 192,-35 l 111,7 53,52 c 30,29 68,79 85,112 l 32,60 6,-115 c 6,-112 33,-226 63,-257 6,-6 54,-27 106,-46 217,-79 201,-70 286,-168 l 78,-91 71,7 c 63,6 74,10 108,43 l 39,37 48,-54 49,-54 113,12 c 89,10 125,18 168,40 l 55,29 57,-25 c 54,-24 65,-35 173,-179 113,-150 116,-154 153,-154 20,0 53,-3 73,-6 l 35,-6 -4,35 -4,35 52,7 c 52,7 52,7 100,-40 l 47,-46 74,10 c 61,8 77,14 92,35 14,20 27,26 56,26 34,0 43,-6 82,-56 36,-45 48,-54 69,-51 14,2 75,12 137,22 l 112,19 94,-28 c 52,-15 99,-31 104,-34 8,-5 5,-38 -8,-106 -20,-108 -17,-103 -135,-226 l -72,-75 -50,-330 -49,-331 17,-113 17,-113 -29,-95 -29,-94 26,-78 c 14,-43 30,-106 36,-140 l 10,-62 -43,-54 -43,-54 h -82 l -83,-1 v 28 c 0,15 -4,33 -8,39 -15,23 -83,-7 -159,-69 l -73,-61 v -62 -63 l 52,14 c 29,7 54,11 56,9 11,-11 -27,-81 -138,-259 l -121,-194 -57,-7 c -91,-11 -88,-6 -96,-157 l -6,-133 -111,-106 -110,-106 17,-36 c 17,-36 17,-37 -9,-76 -21,-31 -27,-53 -27,-94 0,-52 1,-54 40,-76 46,-25 46,-26 24,-81 -14,-35 -27,-46 -86,-76 l -69,-35 31,-42 c 62,-85 46,-79 138,-54 66,18 90,30 122,62 51,50 56,102 13,147 l -27,28 26,26 c 21,22 39,28 99,34 66,6 81,12 140,53 37,26 69,47 72,47 7,0 96,-93 127,-133 l 22,-28 -32,-72 c -18,-40 -35,-78 -37,-84 -4,-9 9,-13 43,-13 48,0 50,-2 86,-53 20,-28 54,-77 77,-108 l 40,-56 -35,-51 c -24,-36 -50,-60 -84,-77 l -50,-25 v -64 c 0,-63 0,-64 44,-100 31,-25 59,-38 89,-42 l 45,-6 7,-72 7,-71 79,-58 79,-59 v -101 l -1,-102 -96,-67 -97,-68 h -94 -95 l 7,-46 c 3,-26 6,-62 6,-80 0,-29 6,-36 49,-60 45,-25 50,-32 61,-81 6,-29 16,-55 21,-59 6,-3 54,-18 107,-33 l 97,-28 3,-129 2,-129 -64,-51 -64,-50 56,-43 56,-44 -27,-14 c -24,-12 -27,-20 -27,-63 v -49 l 100,-76 99,-75 h 65 c 54,0 69,-4 94,-24 25,-22 47,-27 177,-40 81,-9 151,-16 156,-16 5,0 20,21 33,48 l 24,47 11,-30 c 7,-16 17,-43 23,-58 18,-45 -15,-148 -72,-228 l -48,-66 28,-51 28,-52 -32,-19 c -18,-11 -83,-45 -146,-75 l -115,-55 -32,-73 c -28,-65 -37,-77 -84,-105 -46,-28 -59,-43 -91,-107 -35,-70 -41,-76 -110,-114 l -73,-41 -10,-113 -10,-112 -114,-18 -114,-17 -62,-61 -61,-60 -118,-21 -117,-20 -142,25 c -78,14 -189,39 -247,55 -58,16 -124,34 -147,40 l -43,12 v 63 64 l -69,7 c -63,6 -73,5 -113,-19 l -44,-25 -222,6 -223,6 -24,46 c -45,89 -42,87 -122,62 -61,-18 -86,-20 -179,-15 l -109,6 -50,53 -50,54 -227,-174 c -197,-151 -232,-174 -273,-181 -42,-6 -59,-18 -144,-95 -97,-88 -98,-91 -155,-217 l -58,-127 5,-160 c 4,-127 10,-183 31,-270 25,-101 26,-110 10,-122 -15,-11 -100,-33 -128,-33 -7,0 -60,-41 -117,-91 l -104,-90 -80,3 c -76,3 -85,6 -146,45 l -65,43 -75,-10 c -41,-5 -79,-10 -86,-10 -6,0 -17,-16 -23,-35 l -12,-35 h -62 -62 l -17,53 c -17,51 -19,53 -100,92 l -82,40 -7,48 c -4,27 -9,51 -12,54 -3,3 -55,22 -116,43 l -110,38 -25,-29 c -13,-16 -25,-29 -27,-29 -2,0 -19,30 -38,66 l -35,65 -91,-7 -92,-6 -27,45 c -24,42 -31,47 -73,52 -26,4 -126,19 -222,35 -96,15 -176,27 -177,26 -2,-1 8,-43 20,-94 l 23,-91 -20,-5 c -73,-17 -303,-17 -464,0 l -172,18 v 42 c 0,32 -4,44 -17,48 -10,3 -66,19 -124,35 l -106,31 -102,-29 -102,-28 -71,91 c -39,50 -76,99 -82,109 -9,15 -28,17 -148,17 h -138 l -86,55 c -63,41 -89,64 -99,89 -13,31 -32,46 -56,46 -6,0 -19,-21 -30,-46 -16,-36 -25,-45 -42,-42 -34,5 -36,54 -3,70 25,11 26,13 26,115 0,83 -3,105 -15,109 -8,3 -78,16 -155,28 l -140,21 -24,36 -24,36 66,21 c 64,21 70,26 147,120 l 81,97 22,120 c 13,66 47,201 77,300 55,180 84,352 135,785 7,58 16,108 19,112 4,4 33,0 65,-8 32,-8 62,-14 68,-12 5,2 -20,42 -57,90 l -66,86 26,369 c 31,454 30,449 60,469 33,22 56,12 112,-50 93,-103 160,-207 203,-319 23,-59 45,-107 50,-107 20,0 21,30 9,198 l -13,176 -97,106 c -89,97 -105,110 -205,162 -159,83 -147,67 -135,173 l 11,90 -70,70 c -65,66 -70,73 -64,103 4,18 9,34 13,36 12,8 69,-50 105,-106 20,-32 39,-58 41,-58 3,0 28,15 56,33 l 50,32 -6,85 -6,85 -62,63 -61,62 h -75 c -70,0 -76,-2 -117,-36 l -44,-35 -28,20 c -52,37 -53,42 -21,94 16,26 31,47 34,47 3,0 28,-11 55,-25 42,-21 63,-25 144,-25 h 95 l -32,56 c -30,51 -39,59 -128,104 -53,27 -135,64 -182,83 -56,23 -109,54 -150,88 l -64,53 -7,90 c -4,50 -11,93 -16,96 -6,3 -47,43 -94,88 l -83,82 9,51 c 5,30 27,80 54,124 l 45,73 -31,55 c -30,53 -34,56 -84,67 l -53,11 -21,73 -21,72 -85,-4 -84,-4 -22,43 c -21,41 -22,47 -10,133 7,50 14,96 17,102 2,6 -16,27 -40,47 l -45,36 -97,-18 -96,-18 -27,33 c -24,30 -33,34 -74,34 -39,0 -50,-5 -72,-31 -23,-27 -30,-29 -54,-22 -25,9 -27,13 -30,78 -3,62 -6,71 -43,115 l -40,48 -42,-11 c -23,-5 -70,-30 -104,-54 -56,-39 -66,-43 -95,-35 -24,6 -34,15 -36,31 -5,31 12,41 76,41 28,0 52,3 52,8 0,4 -30,37 -67,73 -66,64 -71,67 -168,94 -73,20 -108,35 -130,56 -27,25 -39,29 -86,29 -53,0 -56,-2 -93,-45 -37,-45 -39,-46 -89,-43 -51,3 -51,3 -87,63 -28,48 -36,73 -40,129 l -5,69 -103,30 c -59,18 -102,35 -102,43 0,7 12,26 26,43 26,31 27,31 122,31 69,-1 103,-5 116,-15 11,-8 41,-15 67,-15 44,0 47,2 53,31 3,17 6,46 6,64 0,30 -3,33 -47,44 -28,8 -71,10 -109,6 -85,-10 -102,-3 -96,36 l 5,32 118,-7 119,-7 v 46 46 l -66,29 -66,30 -41,-24 c -30,-18 -60,-25 -106,-27 l -64,-3 -29,59 c -27,52 -29,62 -19,94 23,78 41,94 142,128 112,38 250,69 374,83 86,10 94,10 158,-15 85,-32 95,-31 99,3 l 3,27 112,3 112,3 11,37 c 5,21 13,52 16,70 l 7,32 h 71 c 39,0 115,-5 169,-12 l 98,-12 63,-86 c 35,-47 80,-114 100,-150 20,-36 53,-85 74,-109 l 39,-44 67,13 c 66,12 67,13 107,72 23,33 46,57 53,55 11,-4 151,-49 196,-62 10,-3 22,7 34,29 17,32 23,35 106,50 48,9 92,16 97,16 6,0 18,-15 28,-34 16,-30 24,-34 69,-40 114,-13 128,-10 178,42 l 47,47 -31,50 -32,50 -12,241 -12,241 -87,131 c -96,144 -118,206 -131,367 -4,44 -13,93 -21,108 -8,16 -12,31 -9,34 3,3 36,2 74,-2 64,-6 69,-9 79,-36 11,-28 13,-29 84,-29 60,0 77,4 95,21 21,20 29,21 91,13 l 68,-9 6,-38 c 5,-30 2,-40 -12,-47 -13,-8 -18,-25 -21,-76 l -3,-66 48,-40 c 44,-38 47,-43 47,-89 v -49 h 45 c 38,0 45,3 45,19 0,11 4,22 8,25 17,10 211,-16 364,-50 87,-18 159,-34 161,-34 2,0 21,-13 42,-30 35,-28 44,-30 118,-30 h 80 l 72,64 c 48,44 93,74 138,92 74,30 73,37 -10,55 -34,8 -62,22 -80,41 l -28,29 42,39 c 31,30 44,52 53,92 16,66 16,67 110,132 120,84 239,139 380,175 116,30 133,38 236,106 104,69 117,80 186,177 41,57 77,109 81,115 5,7 22,72 40,145 l 33,133 -12,165 -12,165 29,95 29,95 71,43 c 52,31 95,48 165,63 74,17 120,35 221,90 71,37 130,68 133,68 3,0 22,-37 43,-82 z"
         id="path1-1"
         style="fill:#15b200;fill-opacity:1;stroke:#31b21f;stroke-width:157.818;stroke-linecap:round;stroke-linejoin:round;stroke-dasharray:315.637, 157.818, 78.9089, 157.818;stroke-dashoffset:0;stroke-opacity:1" /><path
         d="m 2382,9504 c -11,-12 -34,-153 -27,-162 2,-2 26,0 54,4 l 52,7 -7,76 c -4,42 -12,79 -18,83 -17,12 -40,9 -54,-8 z m 38,-75 c 0,-39 -3,-49 -16,-49 -14,0 -15,7 -10,38 3,20 6,45 6,55 0,10 5,15 10,12 6,-3 10,-28 10,-56 z"
         id="path2-5"
         style="fill:#15b200;fill-opacity:1;stroke:#31b21f;stroke-width:157.818;stroke-linecap:round;stroke-linejoin:round;stroke-dasharray:315.637, 157.818, 78.9089, 157.818;stroke-dashoffset:0;stroke-opacity:1" /><path
         d="m 1990,9270 c 0,-5 -7,-10 -16,-10 -12,0 -15,-13 -13,-75 2,-73 3,-76 34,-95 23,-14 50,-20 92,-20 66,0 55,-9 127,101 l 16,26 -92,35 c -113,43 -148,52 -148,38 z m 73,-45 c 24,-8 61,-22 81,-30 l 36,-15 -26,-40 c -23,-35 -31,-40 -65,-40 -21,0 -50,5 -64,12 -23,10 -25,17 -25,70 0,32 4,58 10,58 5,0 29,-7 53,-15 z"
         id="path3"
         style="fill:#15b200;fill-opacity:1;stroke:#31b21f;stroke-width:157.818;stroke-linecap:round;stroke-linejoin:round;stroke-dasharray:315.637, 157.818, 78.9089, 157.818;stroke-dashoffset:0;stroke-opacity:1" /><path
         d="m 2338,8980 c -39,-20 -56,-35 -52,-44 3,-8 1,-17 -4,-20 -9,-5 0,-73 10,-80 1,-1 29,-24 61,-50 l 57,-48 89,17 88,17 -25,63 c -21,53 -35,72 -93,119 -37,31 -69,56 -71,56 -2,-1 -29,-14 -60,-30 z m 116,-56 c 52,-42 95,-108 80,-123 -3,-3 -29,-11 -57,-18 -58,-13 -62,-11 -129,49 -24,21 -38,43 -40,63 -3,25 3,32 37,52 22,12 43,23 47,23 3,0 31,-21 62,-46 z"
         id="path4-2"
         style="fill:#15b200;fill-opacity:1;stroke:#31b21f;stroke-width:157.818;stroke-linecap:round;stroke-linejoin:round;stroke-dasharray:315.637, 157.818, 78.9089, 157.818;stroke-dashoffset:0;stroke-opacity:1" /><path
         d="m 1961,8983 c -23,-16 -28,-52 -9,-71 34,-34 102,14 79,56 -14,26 -45,33 -70,15 z m 39,-39 c 0,-9 -5,-14 -12,-12 -18,6 -21,28 -4,28 9,0 16,-7 16,-16 z"
         id="path5-7"
         style="fill:#15b200;fill-opacity:1;stroke:#31b21f;stroke-width:157.818;stroke-linecap:round;stroke-linejoin:round;stroke-dasharray:315.637, 157.818, 78.9089, 157.818;stroke-dashoffset:0;stroke-opacity:1" /><path
         d="m 20,8160 c -41,-41 -10,-110 48,-110 36,0 62,28 62,67 0,57 -69,84 -110,43 z m 74,-32 c 8,-14 7,-21 -6,-34 -30,-30 -75,9 -48,42 16,18 39,15 54,-8 z"
         id="path6-6"
         style="fill:#15b200;fill-opacity:1;stroke:#31b21f;stroke-width:157.818;stroke-linecap:round;stroke-linejoin:round;stroke-dasharray:315.637, 157.818, 78.9089, 157.818;stroke-dashoffset:0;stroke-opacity:1" /><path
         d="m 1360,6851 c -19,-5 -25,-13 -25,-36 0,-24 7,-34 43,-53 l 42,-24 34,30 34,30 -32,31 c -32,31 -49,35 -96,22 z m 80,-50 c 0,-18 -32,-20 -57,-4 l -26,17 24,7 c 25,6 59,-5 59,-20 z"
         id="path7-1"
         style="fill:#15b200;fill-opacity:1;stroke:#31b21f;stroke-width:157.818;stroke-linecap:round;stroke-linejoin:round;stroke-dasharray:315.637, 157.818, 78.9089, 157.818;stroke-dashoffset:0;stroke-opacity:1" /><path
         d="m 1616,6744 c -4,-11 11,-36 45,-75 51,-60 65,-65 117,-50 23,6 22,8 -28,74 -47,62 -53,67 -89,67 -26,0 -41,-5 -45,-16 z m 93,-53 c 43,-54 39,-62 -9,-16 -22,21 -40,43 -40,47 0,18 20,6 49,-31 z"
         id="path8-4"
         style="fill:#15b200;fill-opacity:1;stroke:#31b21f;stroke-width:157.818;stroke-linecap:round;stroke-linejoin:round;stroke-dasharray:315.637, 157.818, 78.9089, 157.818;stroke-dashoffset:0;stroke-opacity:1" /><path
         d="m 1455,6726 c -22,-7 -40,-18 -39,-24 1,-7 2,-34 3,-62 1,-58 -3,-55 134,-65 l 89,-6 -28,51 c -25,46 -97,122 -113,119 -3,-1 -24,-7 -46,-13 z m 76,-49 c 15,-12 32,-32 38,-44 11,-22 10,-23 -38,-23 -70,0 -81,6 -81,45 0,32 9,41 45,43 6,1 22,-9 36,-21 z"
         id="path9-2"
         style="fill:#15b200;fill-opacity:1;stroke:#31b21f;stroke-width:157.818;stroke-linecap:round;stroke-linejoin:round;stroke-dasharray:315.637, 157.818, 78.9089, 157.818;stroke-dashoffset:0;stroke-opacity:1" /><path
         d="m 2203,6296 c -37,-8 -44,-14 -49,-41 -3,-17 -2,-46 3,-65 8,-31 14,-35 73,-51 35,-10 66,-16 69,-14 3,3 7,31 9,63 4,54 2,59 -30,87 -31,29 -36,30 -75,21 z m 59,-43 c 18,-16 23,-48 12,-76 -8,-22 -84,-1 -84,23 0,10 -3,25 -6,34 -4,11 2,19 17,25 34,14 40,13 61,-6 z"
         id="path10-3"
         style="fill:#15b200;fill-opacity:1;stroke:#31b21f;stroke-width:157.818;stroke-linecap:round;stroke-linejoin:round;stroke-dasharray:315.637, 157.818, 78.9089, 157.818;stroke-dashoffset:0;stroke-opacity:1" /><path
         d="m 2098,5943 c -48,-5 -57,-18 -46,-70 l 9,-43 h 80 c 43,0 79,3 79,6 0,15 -66,113 -75,112 -5,-1 -27,-3 -47,-5 z m 52,-54 c 7,-11 9,-23 6,-26 -11,-11 -71,13 -74,30 -5,26 54,23 68,-4 z"
         id="path11-2"
         style="fill:#15b200;fill-opacity:1;stroke:#31b21f;stroke-width:157.818;stroke-linecap:round;stroke-linejoin:round;stroke-dasharray:315.637, 157.818, 78.9089, 157.818;stroke-dashoffset:0;stroke-opacity:1" /><path
         d="m 2377,5702 c -32,-35 -14,-102 26,-102 31,0 47,18 47,53 0,61 -39,87 -73,49 z m 43,-42 c 0,-22 -16,-35 -25,-20 -9,14 4,52 16,45 5,-4 9,-15 9,-25 z"
         id="path12-2"
         style="fill:#15b200;fill-opacity:1;stroke:#31b21f;stroke-width:157.818;stroke-linecap:round;stroke-linejoin:round;stroke-dasharray:315.637, 157.818, 78.9089, 157.818;stroke-dashoffset:0;stroke-opacity:1" /><path
         d="m 12416,2007 c -5,-50 -2,-76 14,-123 38,-108 16,-149 -95,-179 l -78,-21 -21,-59 -21,-60 -88,-29 c -85,-29 -90,-33 -162,-111 -73,-81 -73,-82 -103,-193 l -29,-111 29,-27 c 35,-34 35,-51 2,-66 -24,-11 -25,-16 -20,-53 15,-90 25,-115 54,-121 80,-18 104,-26 108,-39 3,-7 -12,-40 -34,-72 -39,-55 -40,-61 -35,-117 l 6,-58 71,7 c 39,4 75,7 80,8 5,1 8,-25 7,-58 -2,-57 -5,-62 -43,-96 l -42,-35 86,-52 85,-51 -11,-51 c -10,-50 -10,-51 24,-85 32,-31 45,-35 155,-55 118,-20 121,-21 156,-61 26,-29 42,-40 55,-36 11,3 38,11 60,16 41,11 42,12 53,74 7,34 28,110 47,169 43,137 46,222 9,283 -21,34 -25,52 -25,127 0,81 2,92 36,152 31,57 37,79 45,167 9,99 9,105 -21,193 -16,50 -36,125 -44,166 -17,90 -51,167 -103,236 l -38,51 5,139 c 4,118 2,149 -14,206 -20,66 -20,67 -60,73 -23,3 -53,8 -67,11 -25,5 -26,3 -33,-59 z m 91,17 c 16,-4 27,-21 39,-57 14,-43 16,-75 11,-195 l -7,-144 45,-58 c 52,-68 78,-129 104,-248 11,-48 31,-119 44,-158 23,-66 24,-77 15,-168 -8,-82 -15,-108 -44,-160 -32,-59 -34,-68 -34,-160 0,-83 3,-103 25,-146 21,-42 24,-58 19,-112 -3,-35 -19,-106 -34,-158 -16,-52 -33,-120 -40,-151 -11,-56 -11,-57 -53,-63 -38,-6 -43,-5 -72,28 -29,34 -35,37 -155,57 -135,23 -176,44 -166,84 2,11 8,36 11,57 l 7,36 -71,42 c -39,23 -71,45 -71,48 0,3 11,17 24,31 20,22 26,41 32,109 l 7,84 -69,-7 c -38,-4 -77,-9 -86,-11 -15,-5 -18,2 -18,38 0,36 8,55 45,106 l 45,62 -32,30 c -20,17 -49,32 -74,35 -57,9 -62,14 -70,72 -5,45 -4,52 14,62 11,6 23,22 26,37 6,22 1,33 -23,58 l -30,31 23,93 c 27,103 26,103 110,189 53,56 69,66 141,89 44,15 85,31 91,38 7,6 19,34 28,62 l 17,51 67,17 c 37,10 72,19 79,21 7,2 24,27 38,55 l 26,52 -20,61 c -12,33 -21,85 -21,114 0,56 5,61 57,47 z"
         id="path13-1"
         style="fill:#15b200;fill-opacity:1;stroke:#31b21f;stroke-width:157.818;stroke-linecap:round;stroke-linejoin:round;stroke-dasharray:315.637, 157.818, 78.9089, 157.818;stroke-dashoffset:0;stroke-opacity:1" /></g><g
       id="g1"
       inkscape:label="Enveloppe"><g
         id="g10"
         inkscape:label="Contours"><path
           style="opacity:1;fill:none;stroke:#151515;stroke-width:1.5;stroke-linecap:round;stroke-linejoin:round;stroke-dasharray:none;stroke-opacity:0.845433"
           d="m 53.880299,158.6957 c 0,0 9.184143,-2.4491 17.143733,-7.95959 7.95959,-5.51048 12.857797,-9.79641 24.491045,-15.00076 11.633243,-5.20435 15.919183,-5.51049 15.919183,-5.51049 0,0 0.61227,7.34732 5.81662,18.06215 5.20435,10.71483 11.93938,18.48812 11.93938,18.48812"
           id="path1" /><path
           style="fill:none;stroke:#151515;stroke-width:1.5;stroke-linecap:round;stroke-linejoin:round;stroke-dasharray:none;stroke-opacity:0.845433"
           d="m 129.19026,166.77513 c 0,0 -9.18414,2.4491 -17.14373,7.95959 -7.95959,5.51048 -12.8578,9.79641 -24.49105,15.00076 -11.63324,5.20435 -15.91918,5.51049 -15.91918,5.51049 0,0 -0.61227,-7.34732 -5.81662,-18.06215 C 60.61533,166.46899 53.8803,158.6957 53.8803,158.6957"
           id="path1-4" /></g><g
         id="g9"
         inkscape:label="Adresse"
         transform="translate(27.852845,109.0532)"
         style="stroke:#15b200;stroke-opacity:1"><path
           style="opacity:1;fill:none;stroke:#15b200;stroke-width:1.5;stroke-linecap:round;stroke-linejoin:round;stroke-dasharray:none;stroke-opacity:1"
           d="m 59.746355,54.226311 c 0.07216,-0.03608 0.252551,-0.03608 0.216472,-0.108236 -0.03608,-0.07216 -0.144314,0.07216 -0.216472,0.108236 0.180393,-0.216471 0.382061,-0.416859 0.541182,-0.649417 0.07758,-0.113385 0.100912,-0.255947 0.162354,-0.378825 0.130082,-0.260168 0.309938,-0.494067 0.432943,-0.757653 0.08216,-0.176064 0.137564,-0.363638 0.216474,-0.541181 0.150952,-0.339646 0.33171,-0.808271 0.432943,-0.757653 0.256696,0.128346 0.159432,1.447734 0.595299,1.840013 0.247941,0.223149 0.401476,0.209798 0.649417,0 0.656894,-0.555834 1.441892,-2.126128 1.840016,-2.922376 0.172238,-0.344477 0.405185,-1.059873 0.649417,-1.352952 0.108886,-0.130665 0.414184,-0.315868 0.595296,-0.27059 0.135613,0.0339 0.549,1.013984 0.703535,1.190599 0.0594,0.06788 0.144317,0.108236 0.216475,0.162354 0.213577,0.160184 0.237815,0.259918 0.541178,0.108235 0.126019,-0.06301 0.216475,-0.180393 0.32471,-0.270589 0.288031,-0.240025 0.593511,-0.445855 0.811771,-0.757653 0.178853,-0.255503 0.277508,-0.545311 0.432946,-0.811773 0.948108,-1.625328 -0.288989,0.535768 0.487061,-0.757653 0.09159,-0.152646 0.196611,-0.358966 0.324709,-0.487061 0.09198,-0.09199 0.175337,0.2013 0.216472,0.324707 0.151439,0.454316 0.231288,1.296339 0.920006,0.865889 0.500656,-0.312907 0.721921,-0.902655 0.974127,-1.40707 0.134139,-0.26828 0.157671,-0.429432 0.378826,-0.595297 0.186496,-0.139874 0.273465,1.049314 0.649417,0.974125 0.362442,-0.07249 0.666535,-1.169456 1.082362,-1.40707 0.298236,-0.170421 0.438868,1.050644 0.865889,0.324707 0.0016,-0.0028 0.252717,-0.942073 0.541182,-0.974125 0.09667,-0.01074 0.429836,0.538462 0.432943,0.541182 0.119631,0.104677 0.480943,0.01736 0.595299,-0.05412 0.08653,-0.05409 0.123222,-0.175027 0.216471,-0.216474 0.389017,-0.172895 0.247148,0.263773 0.703535,0.162356 1.115015,-0.247782 0.02402,-0.506344 0.865892,-1.082363 0.54415,-0.372313 0.690004,0.162354 1.136478,0.162354 0.501353,0 0.577738,-0.520213 1.028244,-0.595297 0.30306,-0.05051 0.346356,0.194824 0.649418,0 0.3938,-0.253158 0.324342,-0.499009 0.757652,-0.595299 0.05569,-0.01238 0.107715,0.03772 0.162354,0.05412 0.125791,0.03774 0.247952,0.119142 0.378825,0.108236 0.307179,-0.02559 0.561488,-0.524275 0.811774,-0.649418"
           id="path2" /><path
           style="opacity:1;fill:none;stroke:#15b200;stroke-width:1.5;stroke-linecap:round;stroke-linejoin:round;stroke-dasharray:none;stroke-opacity:1"
           d="m 62.668731,60.774598 c 0.0902,-0.07216 0.215279,-0.115068 0.27059,-0.216472 0.06108,-0.111982 0.02784,-0.254005 0.05412,-0.378828 0.04597,-0.218347 0.11218,-0.431995 0.162356,-0.649414 0.05808,-0.251672 0.123079,-0.502372 0.162353,-0.757656 0.03303,-0.214696 0.04379,-0.432437 0.05412,-0.649414 0.01045,-0.219387 -0.03786,-0.625959 0.05412,-0.595299 0.228325,0.07611 0.118531,0.466883 0.162354,0.703535 0.08508,0.459449 0.219101,1.173017 0.541181,1.569423 0.09171,0.112877 0.244343,0.271849 0.378828,0.216472 0.247973,-0.102108 0.387392,-0.375603 0.541179,-0.595299 0.408067,-0.582952 0.7225,-1.226132 1.082362,-1.840013 0.147101,-0.250939 0.254363,-0.528051 0.432943,-0.757653 0.611622,-0.786368 0.631934,0.990624 1.136481,1.08236 0.556361,0.101158 0.811025,-1.550887 1.244717,-1.840013 0.184322,-0.122883 0.354795,0.142004 0.48706,0.162353 0.338567,0.05209 0.45198,-0.06554 0.703535,-0.216471"
           id="path4" /><path
           style="opacity:1;fill:none;stroke:#15b200;stroke-width:1.5;stroke-linecap:round;stroke-linejoin:round;stroke-dasharray:none;stroke-opacity:1"
           d="m 73.113521,54.659257 c 0.07216,0.01804 0.198432,0.126275 0.216471,0.05412 0.01805,-0.07216 -0.249735,0.01241 -0.216471,-0.05412 0.11993,-0.239864 0.395028,-0.370451 0.541178,-0.595299 0.219179,-0.337199 0.377487,-1.329995 0.487064,-1.73178 0.09661,-0.354238 0.16492,-0.600427 0.324707,-0.920007 0.172276,-0.344551 0.40332,-0.06794 0.487064,0.162354 0.08816,0.242453 0.581705,2.315951 1.298834,1.785898 0.776557,-0.57398 1.209424,-1.931784 1.623542,-2.760023 0.01048,-0.02096 0.493111,-0.851881 0.595299,-0.920006 0.221795,-0.147863 0.30499,0.279638 0.32471,0.324707 0.09807,0.224158 0.545388,1.486143 0.920006,1.298834 0.417568,-0.208785 0.460132,-1.005382 0.595299,-1.352952 0.05271,-0.135548 0.131938,-0.260479 0.216472,-0.378825 0.07031,-0.09843 0.566772,0.826035 0.703535,0.757653 0.28584,-0.14292 0.372568,-0.834073 0.595299,-0.865891 0.223761,-0.03196 0.36984,0.340812 0.5953,0.32471 0.67071,-0.04791 0.136802,-0.391523 0.595296,-0.5953 0.44032,-0.195696 0.09361,0.421534 0.541182,0.108236 0.221675,-0.155173 0.281614,-0.473318 0.487063,-0.649417 0.105286,-0.09024 0.434409,-0.152408 0.541181,-0.216472 0.432248,-0.259349 0.103172,-0.176368 0.432943,-0.270589 0.17689,-0.05054 0.370375,-0.03992 0.541182,-0.108238 0.107177,-0.04287 0.844671,-0.541179 0.865888,-0.541179"
           id="path5" /><path
           style="opacity:1;fill:none;stroke:#15b200;stroke-width:1.5;stroke-linecap:round;stroke-linejoin:round;stroke-dasharray:none;stroke-opacity:1"
           d="m 65.861696,66.67347 c 0.05412,-0.450985 0.101526,-0.902825 0.162357,-1.352952 0.02939,-0.217482 0.0772,-0.432165 0.108235,-0.649417 0.0231,-0.161714 0.0167,-0.328052 0.05412,-0.487064 0.408356,-1.735513 0.981319,0.975564 1.515306,1.082363 0.354619,0.07092 0.60978,-0.370443 0.865889,-0.541182"
           id="path6" /><path
           style="opacity:1;fill:none;stroke:#15b200;stroke-width:1.5;stroke-linecap:round;stroke-linejoin:round;stroke-dasharray:none;stroke-opacity:1"
           d="m 70.887028,64.238155 c -0.134114,-0.288629 -0.134114,-0.288629 0,0 z"
           id="path7" /><path
           style="opacity:1;fill:none;stroke:#15b200;stroke-width:1.5;stroke-linecap:round;stroke-linejoin:round;stroke-dasharray:none;stroke-opacity:1"
           d="m 72.139394,63.047556 c -0.134927,-0.809561 -0.108236,-0.429958 -0.108236,-1.136478 0,-0.0902 -0.01482,-0.18162 0,-0.270592 0.186666,-1.119986 0.756679,0.268642 0.920006,0.5953 0.08306,0.166118 0.177009,0.326636 0.270592,0.487063 0.03277,0.05618 0.04514,0.178128 0.108236,0.162354 0.209116,-0.05228 0.160825,-1.433365 0.432943,-1.569424 0.118047,-0.05902 0.621184,0.432946 0.865891,0.432946 0.09714,0 0.181301,-0.06997 0.27059,-0.108239 0.126653,-0.05428 0.108236,-0.01839 0.108236,-0.11589"
           id="path8" /><path
           style="opacity:1;fill:none;stroke:#15b200;stroke-width:1.5;stroke-linecap:round;stroke-linejoin:round;stroke-dasharray:none;stroke-opacity:1"
           d="m 78.525327,59.421646 c 0.361643,-1.084927 0.106084,-0.205717 0.32471,-1.298832 0.0472,-0.236003 0.108235,-0.469024 0.162353,-0.703535 0.05412,-0.234513 0.09228,-0.473289 0.162354,-0.703535 0.05657,-0.185872 0.118575,-0.373359 0.216471,-0.541181 0.269317,-0.461688 0.578239,0.557765 0.5953,0.595299 0.0675,0.148508 0.39243,0.856948 0.595299,1.08236 0.185004,0.20556 0.355939,0.358759 0.595299,0.05412 0.430456,-0.547852 0.443172,-1.953829 1.028242,-2.272959 0.396852,-0.216463 0.847162,0.570889 1.352953,0.432946 0.560871,-0.152966 0.408852,-0.929434 0.865888,-1.190599 0.377558,-0.215746 0.693944,0.423051 1.136481,0.324708 0.340278,-0.07562 0.394962,-0.62103 0.595299,-0.865889 0.232712,-0.284425 0.558033,0.04613 0.811771,0 0.392729,-0.07141 0.667811,-0.380878 0.974124,-0.595299 0.245962,-0.172173 0.505103,-0.324708 0.757653,-0.487061"
           id="path9" /></g><g
         id="g14"
         inkscape:label="Timbre"
         transform="translate(-1.0583333,0.52916667)"><path
           style="opacity:1;fill:none;stroke:#15b200;stroke-width:0.439048;stroke-linecap:butt;stroke-linejoin:bevel;stroke-dasharray:none;stroke-opacity:1"
           d="m 98.66725,136.80885 0.108653,1.26624 c 0,0 1.047469,-0.51245 1.143176,0.0729 0.0957,0.58537 -0.878487,1.24524 -0.878487,1.24524 l 0.148806,0.8925 c 0,0 0.881132,-0.53887 1.029362,0.19056 0.14819,0.7295 -0.597877,1.26267 -0.597877,1.26267 l 0.07492,0.58209 c 0,0 0.860937,-0.37918 1.019827,0.43346 0.1589,0.81265 -0.60857,1.17951 -0.60857,1.17951 l 0.0755,0.74509 c 0,0 0.9958,-0.43921 1.18517,0.18821 0.18937,0.62742 -0.89867,1.40495 -0.89867,1.40495 l 0.32644,1.16513 1.34887,-0.49176 c 0,0 -0.15951,-0.97566 0.66005,-1.30709 0.81958,-0.33143 0.96858,0.61539 0.96858,0.61539 l 1.25581,-0.37076 c 0,0 -0.19018,-0.84476 0.42207,-1.04622 0.61227,-0.20144 0.82284,0.53793 0.82284,0.53793 l 1.21092,-0.4865 c 0,0 -0.0734,-0.96197 0.68414,-1.19465 0.75761,-0.23267 0.79175,0.56015 0.79175,0.56015 l 0.86116,-0.32483 c 0,0 -0.25238,-0.80034 0.33891,-1.0594 0.59125,-0.2591 0.66677,0.48599 0.66677,0.48599 l 1.37975,-0.56831 -0.0971,-0.96574 c 0,0 -0.92253,0.58662 -1.16458,-0.23923 -0.24207,-0.82584 0.96225,-1.06903 0.96225,-1.06903 l -0.25318,-1.01767 c 0,0 -0.90212,0.48123 -1.03963,-0.16509 -0.13748,-0.64634 0.75415,-1.1564 0.75415,-1.1564 l -0.13811,-0.80934 c 0,0 -0.91201,0.61544 -1.08161,-0.28036 -0.16959,-0.89579 0.64028,-1.03871 0.64028,-1.03871 l -0.11734,-0.80604 c 0,0 -1.12035,0.47373 -1.28932,-0.25904 -0.16901,-0.73279 1.0547,-1.35303 1.0547,-1.35303 l -0.36804,-1.17168 -1.36966,0.48845 c 0,0 0.29416,0.86128 -0.54622,1.18941 -0.84037,0.32814 -1.02067,-0.65082 -1.02067,-0.65082 l -1.17223,0.49265 c 0,0 0.24145,0.66285 -0.50565,0.92435 -0.74711,0.26147 -0.97848,-0.48121 -0.97848,-0.48121 l -1.11004,0.44823 c 0,0 0.38782,0.90329 -0.4423,1.2059 -0.83007,0.30263 -0.99967,-0.59317 -0.99967,-0.59317 l -0.81956,0.33143 c 0,0 0.4183,0.71808 -0.25594,1.01828 -0.67423,0.30022 -0.83353,-0.62109 -0.83353,-0.62109 z"
           id="path10" /><path
           style="opacity:1;fill:none;stroke:#15b200;stroke-width:0.499999;stroke-linecap:butt;stroke-linejoin:bevel;stroke-dasharray:none;stroke-opacity:1"
           d="m 102.02051,140.44083 c 0.0973,-0.38805 -0.005,-0.79407 0.0383,-1.18628 0.006,-0.0523 0.033,-0.10074 0.0383,-0.15307 0.008,-0.0762 -0.006,-0.15329 0,-0.2296 0.007,-0.0899 0.0216,-0.17922 0.0383,-0.26788 0.0658,-0.35114 0.2932,-1.1299 0.49748,-1.41588 0.0612,-0.0857 0.14298,-0.1372 0.2296,-0.19134 0.0741,-0.0463 0.22741,-0.1798 0.34441,-0.1148 0.0788,0.0438 0.12755,0.12756 0.19133,0.19134 0.21911,0.2191 0.25411,0.4133 0.38268,0.68881 0.20501,0.43931 0.41878,0.87619 0.65054,1.30108 0.0747,0.1369 0.37373,0.62172 0.0383,0.68881 -0.14055,0.0281 -0.32729,-0.0977 -0.42094,-0.19133 -0.0325,-0.0325 -0.044,-0.0823 -0.0765,-0.1148 -0.0705,-0.0704 -0.15588,-0.12432 -0.2296,-0.19134 -0.0667,-0.0607 -0.12014,-0.13596 -0.19134,-0.19134 -0.045,-0.035 -0.10494,-0.0459 -0.15307,-0.0765 -0.39121,-0.24895 -0.80317,-0.61228 -1.30109,-0.61228 -0.14261,0 -0.28172,0.0456 -0.42093,0.0765 -0.13713,0.0305 -0.38925,0.0831 -0.49748,0.19133"
           id="path11" /><path
           style="opacity:1;fill:none;stroke:#15b200;stroke-width:0.499999;stroke-linecap:butt;stroke-linejoin:bevel;stroke-dasharray:none;stroke-opacity:1"
           d="m 108.87035,139.63722 c -0.15776,0.022 -0.30541,0.0764 -0.45921,0.11481 -0.46895,0.11724 -0.89225,0.42872 -1.14802,0.84188 -0.34571,0.55846 -0.33336,1.49242 0.53575,1.49242 0.29462,0 0.82648,-0.2083 1.07148,-0.34441 0.52092,-0.36064 0.31708,-0.25421 0.57401,-0.38267"
           id="path12" /><path
           style="fill:none;stroke:#6a6a6a;stroke-width:0.499999;stroke-linecap:butt;stroke-linejoin:bevel;stroke-dasharray:none;stroke-opacity:1"
           d="m 107.92908,135.68139 c -0.15776,0.022 -0.30541,0.0764 -0.45921,0.11481 -0.46895,0.11724 -0.89225,0.42872 -1.14802,0.84188 -0.34571,0.55846 -0.33336,1.49242 0.53575,1.49242 0.29462,0 0.82648,-0.2083 1.07148,-0.34441 0.52092,-0.36064 0.31708,-0.25421 0.57401,-0.38267"
           id="path12-1" /><path
           style="opacity:1;fill:none;stroke:#808080;stroke-width:0.499999;stroke-linecap:butt;stroke-linejoin:bevel;stroke-dasharray:none;stroke-opacity:1"
           d="m 103.39813,142.62207 c 0.051,0.0765 0.11683,0.14506 0.15307,0.2296 0.0414,0.0967 0.0433,0.20635 0.0765,0.30614 0.0636,0.19073 0.18963,0.37412 0.2296,0.57401 0.008,0.0375 0.0342,0.0977 0,0.1148 -0.0899,0.045 -0.20994,-0.11445 -0.26787,-0.15307 -0.0475,-0.0316 -0.10976,-0.0394 -0.15307,-0.0765 -0.21372,-0.18319 -0.28981,-0.49105 -0.42094,-0.72708 -0.031,-0.0557 -0.0889,-0.0948 -0.1148,-0.15307 -0.12726,-0.28634 -0.0752,-0.55076 0.0765,-0.80361 0.3494,-0.58234 0.92353,-0.9111 1.60722,-0.95668 0.10182,-0.007 0.20432,0.007 0.30614,0 0.47467,-0.0316 0.0606,-0.0415 0.57401,-0.1148 0.10047,-0.0143 0.23537,0 0.3444,0"
           id="path13" /><path
           style="opacity:1;fill:none;stroke:#808080;stroke-width:0.499999;stroke-linecap:butt;stroke-linejoin:bevel;stroke-dasharray:none;stroke-opacity:1"
           d="m 103.7808,142.81341 c 0.39858,-0.0539 0.81981,-0.20754 1.10975,-0.49748"
           id="path14" /></g></g></g><metadata
     id="metadata16"><rdf:RDF><cc:Work
         rdf:about=""><dc:title>Courrier Simple France</dc:title></cc:Work></rdf:RDF></metadata></svg>
